<?xml version="1.0" encoding="UTF-8"?><svg id="a" xmlns="http://www.w3.org/2000/svg" viewBox="0 0 200 200"><defs><style>.b{fill:#fff;}.c,.d{fill:#bf2220;}.d{stroke:#bf2220;stroke-linecap:round;stroke-linejoin:round;stroke-width:8.6px;}</style></defs><path class="d" d="M136.31,142.79c9.01-8.41,14.58-19.97,14.58-32.75,0-25.69-22.53-46.52-50.32-46.52s-50.32,20.83-50.32,46.52,22.53,46.52,50.32,46.52c6.57,0,12.84-1.18,18.6-3.3l25.91,16.59-8.78-27.07Z"/><path class="c" d="M181.19,89.97c-2.7-44.9-40.07-80.61-85.63-80.61S10.95,46.71,9.81,93.04c-4.44,2.93-7.35,7.64-7.35,12.96v23.97c0,8.85,8,16.04,17.85,16.08,0,2.93,.69,5.9,2.13,8.74,2.49,4.92,6.82,8.83,12.22,11.01l25.01,10.11c-.13,2.1,.38,4.19,1.5,6.03,1.45,2.36,3.71,4.01,6.39,4.65l15.69,3.76c.81,.19,1.61,.29,2.41,.29,4.66,0,8.91-3.19,10.04-7.92,1.33-5.54-2.1-11.12-7.63-12.45l-15.69-3.76c-2.18-.52-4.43-.31-6.46,.57l-27.3-11.04c-2.66-1.08-4.79-2.98-6-5.37-.76-1.51-1.08-3.08-.96-4.6h3.95c3.74,0,6.78-2.84,6.78-6.33v-43.49c0-3.49-3.04-6.33-6.78-6.33h-12.91C25.4,52.06,57.04,22.09,95.56,22.09s70.16,29.97,72.87,67.81h-4.02c-3.74,0-6.78,2.84-6.78,6.33v43.49c0,3.49,3.04,6.33,6.78,6.33h15.2c9.89,0,17.94-7.22,17.94-16.09v-23.97c0-8.39-7.2-15.29-16.35-16.02Z"/><g><circle class="b" cx="73.18" cy="110.04" r="7.05"/><circle class="b" cx="100.58" cy="110.04" r="7.05"/><circle class="b" cx="127.98" cy="110.04" r="7.05"/></g></svg>