<?xml version="1.0" encoding="UTF-8"?><svg id="a" xmlns="http://www.w3.org/2000/svg" viewBox="0 0 200 200"><defs><style>.b{fill:#898989;}</style></defs><path class="b" d="M57.46,70.33l-2.44-4.93c-2.46-4.99-3.71-10.36-3.71-15.98,.02-19.85,16.18-35.97,36.02-35.97h.04c19.86,.02,36,16.2,35.97,36.06,0,5.61-1.27,10.98-3.74,15.97l-2.45,4.92,9.84,4.89,2.44-4.92c3.24-6.51,4.89-13.53,4.89-20.85,.03-25.92-21.03-47.03-46.95-47.06h-.06c-12.51,0-24.3,4.88-33.18,13.74-8.9,8.88-13.81,20.67-13.82,33.21,0,7.32,1.62,14.34,4.84,20.86l2.43,4.93,9.85-4.87Z"/><path class="b" d="M114.45,55v-5.49c.02-14.96-12.13-27.14-27.08-27.16h-.03c-7.22,0-14.02,2.82-19.15,7.93-5.13,5.12-7.97,11.93-7.97,19.16v5.5h10.98v-5.48c.01-4.3,1.7-8.35,4.75-11.4,3.05-3.04,7.09-4.72,11.39-4.72h.02c4.3,0,8.35,1.69,11.4,4.75,3.05,3.05,4.72,7.11,4.72,11.41v5.5h10.98Z"/><path class="b" d="M154.99,103.68c-2.5-2.71-5.89-4.15-9.8-4.16h-.04c-2.06,0-4.03,.42-5.79,1.21-.78-2.24-1.88-4.15-3.28-5.67-2.58-2.81-5.96-4.24-10.04-4.25h-.04c-2.37,0-4.51,.46-6.41,1.37-.67-1.52-1.54-2.85-2.58-3.98-2.62-2.85-6.11-4.3-10.37-4.31-1.62-.03-3.13,.21-4.54,.63l.03-13.96c0-.44,.01-10.74-5.61-16.4-2.5-2.52-5.61-3.81-9.23-3.82-4.06-.02-7.37,1.38-9.95,4.14-5.22,5.57-4.86,14.84-4.8,15.8l-.1,43.73c-1.6-2.27-3.66-4.42-6.25-5.78-3.15-1.65-6.5-1.93-9.95-.84-3.94,1.24-6.83,3.71-8.35,7.15-2.72,6.14-.13,13.2,.78,15.32,1.1,3.25,6.71,18.99,13.19,33.99,12.03,27.83,18.29,33.55,24,33.56l54.89,.13,1.05-.5c1.24-.59,5.6-3.18,9.77-11.55,5.28-10.6,7.98-25.95,8.03-45.61l.05-20.07c.11-1.74,.39-10.67-4.64-16.12Zm-5.51,15.52l-.06,20.65c-.08,34.52-8.85,45.12-11.46,47.51l-51.53-.12c-.97-.72-5.57-5.04-15.32-27.65-6.54-15.16-12.12-30.94-12.91-33.3l-.15-.38c-.65-1.42-1.76-5.22-.85-7.26,.22-.49,.65-1.11,2.11-1.57,.83-.26,1.48-.21,2.18,.15,2.53,1.32,4.72,6.03,5.33,7.98l6.14,19.23,9.6,.02,.18-74.34v-.25c-.12-1.84,.23-6.52,2.06-8.46,.61-.65,1.33-.94,2.5-.92,.86,0,1.47,.24,2.03,.8,2.01,2.02,2.67,7.17,2.66,9.2l-.07,29.65c-.04,.95-.01,1.61,0,1.71l-.05,19.45,10.17,.03,.05-20.91c.05-.89,.31-3.91,1.72-5.4,.43-.46,1.14-.98,2.81-.98h.02c1.75,0,2.47,.54,2.91,1.02,1.46,1.57,1.73,5.05,1.62,6.39l-.02,5.96c-.09,1.49-.04,2.66-.01,3.13v10.81l10.17,.03v-13.25c.14-2.76,.81-4.99,1.84-6.13,.43-.48,1.15-1.04,2.88-1.04h.02c1.19,0,1.96,.29,2.58,.96,1.79,1.94,2.09,6.57,1.95,8.39l-.05,16.11,10.17,.03,.02-8.8c.24-3.27,1.01-5.91,2.07-7.07,.58-.64,1.3-.91,2.4-.91h.02c1.08,0,1.78,.27,2.35,.88,1.81,1.95,2.11,6.74,1.97,8.63Z"/></svg>